/* XPM */
static char *_6b3ae497c754e90f06db7388ad92debTsxtotb0ATWfluS5[] = {
/* columns rows colors chars-per-pixel */
"32 64 60 1 ",
"  c None",
". c black",
"X c #282008",
"o c #382810",
"O c #202020",
"+ c #282828",
"@ c gray22",
"# c #403018",
"$ c #483818",
"% c #503818",
"& c #584020",
"* c #684820",
"= c #704828",
"- c #000040",
"; c #000048",
": c #000058",
"> c #000060",
", c #000070",
"< c #000078",
"1 c #484848",
"2 c #505050",
"3 c #606060",
"4 c gray44",
"5 c gray47",
"6 c #984800",
"7 c #805028",
"8 c #885830",
"9 c #905830",
"0 c #986038",
"q c #A06038",
"w c #C86000",
"e c #F87800",
"r c #A86840",
"t c #B07040",
"y c #B87848",
"u c #C87848",
"i c #D08050",
"p c #D88850",
"a c #E88858",
"s c #F09058",
"d c #F89860",
"f c #F8A070",
"g c #000088",
"h c #0000A0",
"j c #0000A8",
"k c #0000B8",
"l c #0000D0",
"z c #0000F8",
"x c #888888",
"c c #989898",
"v c gray66",
"b c gray69",
"n c #F8B080",
"m c #F8B890",
"M c #F8B898",
"N c #F8C0A0",
"B c #C0C0C0",
"V c #D0D0D0",
"C c #D8D8D8",
"Z c #F8F8F8",
/* pixels */
"                                ",
"                                ",
"                                ",
"                                ",
"                                ",
"                                ",
"                                ",
"                                ",
"                                ",
"                                ",
"                                ",
"                                ",
"                                ",
"                                ",
"                                ",
"             vvx52@             ",
"            vv3421++            ",
"            x544222+            ",
"           @BVBvx422+           ",
"           5O$*88*$OO           ",
"          51.rznyzr.OO          ",
"          .O=sMyrMs=OO          ",
"           O$inssni$O           ",
"            $0t$$t0$            ",
"            .0anna$.            ",
"           ...*qqq...           ",
"        tf3.Z4.*p.4V.999        ",
"       fdf3@4V....V4tiiir       ",
"      fsidp37.17#7.tsssuir      ",
"     fsi0pd@37ddrddddduiai      ",
"    fsir7%pd@@dd=d008=u=uai     ",
"   fsir=ooqtiO@i#d0dd%7=riar    ",
"   i0*7oo =qiiO@@i899##X9iai*   ",
"  sffyo   &=tii.O@t=#7#X9rtar   ",
"  sfr7o    &qi8i..O@t7Xo*o7ri*  ",
"  qffi0o   $qt8q.i...$X X&aai*  ",
"  9s%%%.  .OO@@Cbc@++O.  $*9y*  ",
"   %tsna&ss7o++551OOO..  $riy   ",
"   =tn9O1&tst#y7.t0tq$&# X797   ",
"    =si1ve&7it#7.tiit7## X$$q   ",
"     ==O4vw&&997.0iit9*# nsr$   ",
"        O66w#XX&.0iitq*# o0i    ",
"         O66#&#X.0iitq*#$ii     ",
"          o&#&&ooooooooX        ",
"          y0r07&o7777&&X        ",
"         ysfsr0=o=aiqq&X        ",
"         ssfsiro oaiiqqX        ",
"        ysfsir7o $qfiq%X        ",
"        ysNi77oo o8fiq*#        ",
"       ysNnfr%o  7yafq7X        ",
"       usn0rf7#  o$nmfu%X       ",
"       usfs7##    $yr97%X       ",
"       sfsir7o   o9afiq%X       ",
"       7y07%Xo   o$9r8*#X       ",
"       ......     ......        ",
"       .j;OO.     .OOOO.        ",
"       .<;OO.     .j,OO.        ",
"      .jkg-.      .-j;O.        ",
"      .g,O..       .j;O.        ",
"      .j;OO        .j,.         ",
"     .jlh>-.      .-jl,.        ",
"    .:gg;-O.      .>;h>-.       ",
"    .OOOOOO        OOOOO.       ",
"                                "
};
