/* XPM */
static char *ef95225eb87b4216d8338dd03f3d0881KX6vflNyPZ6IDqWP[] = {
/* columns rows colors chars-per-pixel */
"16 16 30 1 ",
"  c None",
". c black",
"X c #940000",
"o c #A10000",
"O c #A60000",
"+ c #AA0000",
"@ c #AF0000",
"# c #B40000",
"$ c #B90000",
"% c #C30000",
"& c #C80000",
"* c #CE0000",
"= c #D90000",
"- c #E50000",
"; c #EB0000",
": c #F20000",
"> c #F80000",
", c red",
"< c #FF4343",
"1 c #FF4545",
"2 c #FF6969",
"3 c #FF7070",
"4 c #FF7373",
"5 c #FF8181",
"6 c #FF8484",
"7 c #FF8686",
"8 c #FF8989",
"9 c #FF9191",
"0 c #FFEBEB",
"q c #FFF2F2",
/* pixels */
"   ...    ...   ",
"  .321.  .,,;.  ",
" .37051..,,,,=. ",
".29q71,,,,,,,-#.",
".3q51,,,,,,,,-X.",
".181,,,,,,,,,*+.",
".11,,,,,,,,,,%$.",
" .,,,,,,,,,,;X. ",
" .,,,,,,,,,:$o. ",
"  .,,,,,,,>$O.  ",
"   .,,,,,>*@.   ",
"    .,,,,%#.    ",
"     .,>*o.     ",
"      .&+.      ",
"       ..       ",
"                "
};
